<?xml version="1.0" encoding="UTF-8"?>
<svg xmlns="http://www.w3.org/2000/svg" xmlns:xlink="http://www.w3.org/1999/xlink" width="1920" height="1080" viewBox="0 0 1920 1080">
<defs>
<g>
<g id="glyph-0-0">
<path d="M 0.980469 -4.902344 L 1.757812 -4.902344 L 1.78125 -4 C 2.070312 -4.347656 2.359375 -4.601562 2.640625 -4.757812 C 2.921875 -4.914062 3.203125 -4.992188 3.492188 -4.992188 C 4 -4.992188 4.382812 -4.824219 4.644531 -4.496094 C 4.90625 -4.167969 5.03125 -3.679688 5.007812 -3.03125 L 4.148438 -3.03125 C 4.160156 -3.460938 4.097656 -3.773438 3.960938 -3.96875 C 3.828125 -4.160156 3.628906 -4.257812 3.367188 -4.257812 C 3.253906 -4.257812 3.140625 -4.238281 3.023438 -4.195312 C 2.910156 -4.15625 2.789062 -4.089844 2.667969 -4 C 2.546875 -3.910156 2.417969 -3.796875 2.28125 -3.65625 C 2.144531 -3.515625 1.996094 -3.347656 1.839844 -3.148438 L 1.839844 0 L 0.980469 0 Z "/>
</g>
<g id="glyph-0-1">
<path d="M 4.722656 0 L 3.960938 0 L 3.929688 -0.789062 C 3.785156 -0.621094 3.644531 -0.480469 3.511719 -0.367188 C 3.382812 -0.257812 3.25 -0.164062 3.121094 -0.0976562 C 2.988281 -0.03125 2.859375 0.0195312 2.726562 0.046875 C 2.59375 0.0742188 2.457031 0.0859375 2.308594 0.0859375 C 1.804688 0.0859375 1.425781 -0.0585938 1.167969 -0.355469 C 0.910156 -0.652344 0.78125 -1.101562 0.78125 -1.699219 L 0.78125 -4.902344 L 1.632812 -4.902344 L 1.632812 -1.765625 C 1.632812 -1.015625 1.914062 -0.640625 2.480469 -0.640625 C 2.585938 -0.640625 2.6875 -0.65625 2.785156 -0.6875 C 2.886719 -0.71875 2.988281 -0.769531 3.097656 -0.847656 C 3.207031 -0.921875 3.324219 -1.027344 3.449219 -1.15625 C 3.574219 -1.289062 3.714844 -1.453125 3.871094 -1.648438 L 3.871094 -4.902344 L 4.722656 -4.902344 Z "/>
</g>
</g>
</defs>
<g fill="rgb(100%, 100%, 100%)" fill-opacity="1">
<use xlink:href="#glyph-0-0" x="30" y="27.426758"/>
<use xlink:href="#glyph-0-1" x="35" y="27.426758"/>
</g>
</svg>
