<?xml version="1.0" encoding="UTF-8"?>
<svg xmlns="http://www.w3.org/2000/svg" xmlns:xlink="http://www.w3.org/1999/xlink" width="1920" height="1080" viewBox="0 0 1920 1080">
<defs>
<g>
<g id="glyph-0-0">
<path d="M 0.980469 -4.902344 L 1.757812 -4.902344 L 1.78125 -4 C 2.070312 -4.347656 2.359375 -4.601562 2.640625 -4.757812 C 2.921875 -4.914062 3.203125 -4.992188 3.492188 -4.992188 C 4 -4.992188 4.382812 -4.824219 4.644531 -4.496094 C 4.90625 -4.167969 5.03125 -3.679688 5.007812 -3.03125 L 4.148438 -3.03125 C 4.160156 -3.460938 4.097656 -3.773438 3.960938 -3.96875 C 3.828125 -4.160156 3.628906 -4.257812 3.367188 -4.257812 C 3.253906 -4.257812 3.140625 -4.238281 3.023438 -4.195312 C 2.910156 -4.15625 2.789062 -4.089844 2.667969 -4 C 2.546875 -3.910156 2.417969 -3.796875 2.28125 -3.65625 C 2.144531 -3.515625 1.996094 -3.347656 1.839844 -3.148438 L 1.839844 0 L 0.980469 0 Z "/>
</g>
<g id="glyph-0-1">
<path d="M 4.722656 0 L 3.960938 0 L 3.929688 -0.789062 C 3.785156 -0.621094 3.644531 -0.480469 3.511719 -0.367188 C 3.382812 -0.257812 3.25 -0.164062 3.121094 -0.0976562 C 2.988281 -0.03125 2.859375 0.0195312 2.726562 0.046875 C 2.59375 0.0742188 2.457031 0.0859375 2.308594 0.0859375 C 1.804688 0.0859375 1.425781 -0.0585938 1.167969 -0.355469 C 0.910156 -0.652344 0.78125 -1.101562 0.78125 -1.699219 L 0.78125 -4.902344 L 1.632812 -4.902344 L 1.632812 -1.765625 C 1.632812 -1.015625 1.914062 -0.640625 2.480469 -0.640625 C 2.585938 -0.640625 2.6875 -0.65625 2.785156 -0.6875 C 2.886719 -0.71875 2.988281 -0.769531 3.097656 -0.847656 C 3.207031 -0.921875 3.324219 -1.027344 3.449219 -1.15625 C 3.574219 -1.289062 3.714844 -1.453125 3.871094 -1.648438 L 3.871094 -4.902344 L 4.722656 -4.902344 Z "/>
</g>
<g id="glyph-0-2">
<path d="M 0.78125 -4.902344 L 1.539062 -4.902344 L 1.570312 -4.109375 C 1.714844 -4.28125 1.855469 -4.421875 1.988281 -4.535156 C 2.121094 -4.644531 2.25 -4.734375 2.378906 -4.804688 C 2.507812 -4.871094 2.640625 -4.921875 2.773438 -4.949219 C 2.90625 -4.976562 3.046875 -4.992188 3.1875 -4.992188 C 3.691406 -4.992188 4.074219 -4.839844 4.332031 -4.542969 C 4.59375 -4.246094 4.722656 -3.796875 4.722656 -3.199219 L 4.722656 0 L 3.871094 0 L 3.871094 -3.128906 C 3.871094 -3.515625 3.800781 -3.796875 3.65625 -3.980469 C 3.515625 -4.164062 3.300781 -4.257812 3.015625 -4.257812 C 2.914062 -4.257812 2.8125 -4.242188 2.710938 -4.210938 C 2.613281 -4.179688 2.507812 -4.125 2.402344 -4.050781 C 2.292969 -3.972656 2.179688 -3.871094 2.054688 -3.742188 C 1.929688 -3.609375 1.789062 -3.445312 1.632812 -3.25 L 1.632812 0 L 0.78125 0 Z "/>
</g>
<g id="glyph-0-3">
</g>
<g id="glyph-0-4">
<path d="M 2.453125 -4.199219 L 1 -4.199219 L 1 -4.902344 L 3.3125 -4.902344 L 3.3125 -0.707031 L 4.769531 -0.707031 L 4.769531 0 L 0.839844 0 L 0.839844 -0.707031 L 2.453125 -0.707031 L 2.453125 -4.199219 M 2.75 -6.957031 C 2.84375 -6.957031 2.929688 -6.941406 3.011719 -6.90625 C 3.09375 -6.871094 3.164062 -6.824219 3.226562 -6.761719 C 3.285156 -6.699219 3.332031 -6.628906 3.367188 -6.550781 C 3.402344 -6.46875 3.417969 -6.382812 3.417969 -6.289062 C 3.417969 -6.199219 3.402344 -6.113281 3.367188 -6.03125 C 3.332031 -5.949219 3.285156 -5.878906 3.226562 -5.816406 C 3.164062 -5.753906 3.09375 -5.707031 3.011719 -5.671875 C 2.929688 -5.636719 2.84375 -5.621094 2.75 -5.621094 C 2.65625 -5.621094 2.566406 -5.636719 2.484375 -5.671875 C 2.402344 -5.707031 2.332031 -5.753906 2.273438 -5.816406 C 2.210938 -5.878906 2.164062 -5.949219 2.132812 -6.03125 C 2.097656 -6.113281 2.078125 -6.199219 2.078125 -6.289062 C 2.078125 -6.382812 2.097656 -6.46875 2.132812 -6.550781 C 2.164062 -6.628906 2.210938 -6.699219 2.273438 -6.761719 C 2.332031 -6.824219 2.402344 -6.871094 2.484375 -6.90625 C 2.566406 -6.941406 2.65625 -6.957031 2.75 -6.957031 Z "/>
</g>
<g id="glyph-0-5">
<path d="M 4.730469 -0.0703125 C 4.539062 -0.0195312 4.339844 0.015625 4.136719 0.0351562 C 3.929688 0.0585938 3.722656 0.0703125 3.511719 0.0703125 C 2.894531 0.0703125 2.4375 -0.0703125 2.132812 -0.347656 C 1.832031 -0.628906 1.679688 -1.054688 1.679688 -1.632812 L 1.679688 -4.1875 L 0.308594 -4.1875 L 0.308594 -4.902344 L 1.679688 -4.902344 L 1.679688 -6.25 L 2.53125 -6.46875 L 2.53125 -4.902344 L 4.730469 -4.902344 L 4.730469 -4.1875 L 2.53125 -4.1875 L 2.53125 -1.699219 C 2.53125 -1.347656 2.621094 -1.085938 2.808594 -0.910156 C 2.996094 -0.738281 3.273438 -0.648438 3.636719 -0.648438 C 3.792969 -0.648438 3.964844 -0.660156 4.148438 -0.6875 C 4.335938 -0.710938 4.53125 -0.75 4.730469 -0.800781 Z "/>
</g>
</g>
</defs>
<g fill="rgb(100%, 100%, 100%)" fill-opacity="1">
<use xlink:href="#glyph-0-0" x="30" y="27.426758"/>
<use xlink:href="#glyph-0-1" x="35" y="27.426758"/>
<use xlink:href="#glyph-0-2" x="40" y="27.426758"/>
<use xlink:href="#glyph-0-3" x="45" y="27.426758"/>
<use xlink:href="#glyph-0-4" x="50" y="27.426758"/>
<use xlink:href="#glyph-0-2" x="55" y="27.426758"/>
<use xlink:href="#glyph-0-5" x="60" y="27.426758"/>
<use xlink:href="#glyph-0-0" x="65" y="27.426758"/>
</g>
</svg>
